<?xml version="1.0" encoding="UTF-8"?>
<!--Generator: Apple Native CoreSVG 341-->
<!DOCTYPE svg
PUBLIC "-//W3C//DTD SVG 1.1//EN"
       "http://www.w3.org/Graphics/SVG/1.1/DTD/svg11.dtd">
<svg version="1.1" xmlns="http://www.w3.org/2000/svg" xmlns:xlink="http://www.w3.org/1999/xlink" viewBox="0 0 3300 2200">
 <!--glyph: "", point size: 100.0, font version: "20.0d10e1", template writer version: "138.0.0"-->
 <style>.monochrome-0 {-sfsymbols-motion-group:1;-sfsymbols-layer-tags:-2b7b8fc0db5dab61 capsule}
.monochrome-1 {-sfsymbols-motion-group:0;-sfsymbols-always-pulses:true;-sfsymbols-layer-tags:-2b7b8fc0db5dab61 -33e11ace424bbd9e function}
.monochrome-2 {-sfsymbols-motion-group:0;-sfsymbols-always-pulses:true;-sfsymbols-layer-tags:-2b7b8fc0db5dab61 -33e11ace424bbd9e function}

.multicolor-0:tintColor {-sfsymbols-motion-group:1;-sfsymbols-layer-tags:-2b7b8fc0db5dab61 capsule}
.multicolor-1:tintColor {-sfsymbols-motion-group:0;-sfsymbols-always-pulses:true;-sfsymbols-layer-tags:-2b7b8fc0db5dab61 -33e11ace424bbd9e function}
.multicolor-2:tintColor {-sfsymbols-motion-group:0;-sfsymbols-always-pulses:true;-sfsymbols-layer-tags:-2b7b8fc0db5dab61 -33e11ace424bbd9e function}

.hierarchical-0:secondary {-sfsymbols-motion-group:1;-sfsymbols-layer-tags:-2b7b8fc0db5dab61 capsule}
.hierarchical-1:primary {-sfsymbols-motion-group:0;-sfsymbols-layer-tags:-2b7b8fc0db5dab61 -33e11ace424bbd9e function}
.hierarchical-2:primary {-sfsymbols-motion-group:0;-sfsymbols-layer-tags:-2b7b8fc0db5dab61 -33e11ace424bbd9e function}

.SFSymbolsPreviewWireframe {fill:none;opacity:1.0;stroke:black;stroke-width:0.5}
</style>
 <g id="Notes">
  <rect height="2200" id="artboard" style="fill:white;opacity:1" width="3300" x="0" y="0"/>
  <line style="fill:none;stroke:black;opacity:1;stroke-width:0.5;" x1="263" x2="3036" y1="292" y2="292"/>
  <text style="stroke:none;fill:black;font-family:sans-serif;font-size:13;font-weight:bold;" transform="matrix(1 0 0 1 263 322)">Weight/Scale Variations</text>
  <text style="stroke:none;fill:black;font-family:sans-serif;font-size:13;text-anchor:middle;" transform="matrix(1 0 0 1 559.711 322)">Ultralight</text>
  <text style="stroke:none;fill:black;font-family:sans-serif;font-size:13;text-anchor:middle;" transform="matrix(1 0 0 1 856.422 322)">Thin</text>
  <text style="stroke:none;fill:black;font-family:sans-serif;font-size:13;text-anchor:middle;" transform="matrix(1 0 0 1 1153.13 322)">Light</text>
  <text style="stroke:none;fill:black;font-family:sans-serif;font-size:13;text-anchor:middle;" transform="matrix(1 0 0 1 1449.84 322)">Regular</text>
  <text style="stroke:none;fill:black;font-family:sans-serif;font-size:13;text-anchor:middle;" transform="matrix(1 0 0 1 1746.56 322)">Medium</text>
  <text style="stroke:none;fill:black;font-family:sans-serif;font-size:13;text-anchor:middle;" transform="matrix(1 0 0 1 2043.27 322)">Semibold</text>
  <text style="stroke:none;fill:black;font-family:sans-serif;font-size:13;text-anchor:middle;" transform="matrix(1 0 0 1 2339.98 322)">Bold</text>
  <text style="stroke:none;fill:black;font-family:sans-serif;font-size:13;text-anchor:middle;" transform="matrix(1 0 0 1 2636.69 322)">Heavy</text>
  <text style="stroke:none;fill:black;font-family:sans-serif;font-size:13;text-anchor:middle;" transform="matrix(1 0 0 1 2933.4 322)">Black</text>
  <line style="fill:none;stroke:black;opacity:1;stroke-width:0.5;" x1="263" x2="3036" y1="1903" y2="1903"/>
  <g transform="matrix(0.2 0 0 0.2 263 1933)">
   <path d="m46.2402 4.15039c21.7773 0 39.4531-17.627 39.4531-39.4043s-17.6758-39.4043-39.4531-39.4043c-21.7285 0-39.4043 17.627-39.4043 39.4043s17.6758 39.4043 39.4043 39.4043Zm0-7.42188c-17.6758 0-31.9336-14.3066-31.9336-31.9824s14.2578-31.9824 31.9336-31.9824 31.9824 14.3066 31.9824 31.9824-14.3066 31.9824-31.9824 31.9824Zm-17.9688-31.9824c0 2.14844 1.51367 3.61328 3.75977 3.61328h10.498v10.5957c0 2.19727 1.46484 3.71094 3.61328 3.71094 2.24609 0 3.71094-1.51367 3.71094-3.71094v-10.5957h10.5957c2.19727 0 3.71094-1.46484 3.71094-3.61328 0-2.19727-1.51367-3.71094-3.71094-3.71094h-10.5957v-10.5469c0-2.24609-1.46484-3.75977-3.71094-3.75977-2.14844 0-3.61328 1.51367-3.61328 3.75977v10.5469h-10.498c-2.24609 0-3.75977 1.51367-3.75977 3.71094Z"/>
  </g>
  <g transform="matrix(0.2 0 0 0.2 281.506 1933)">
   <path d="m58.5449 14.5508c27.4902 0 49.8047-22.3145 49.8047-49.8047s-22.3145-49.8047-49.8047-49.8047-49.8047 22.3145-49.8047 49.8047 22.3145 49.8047 49.8047 49.8047Zm0-8.30078c-22.9492 0-41.5039-18.5547-41.5039-41.5039s18.5547-41.5039 41.5039-41.5039 41.5039 18.5547 41.5039 41.5039-18.5547 41.5039-41.5039 41.5039Zm-22.6562-41.5039c0 2.39258 1.66016 4.00391 4.15039 4.00391h14.3555v14.4043c0 2.44141 1.66016 4.15039 4.05273 4.15039 2.44141 0 4.15039-1.66016 4.15039-4.15039v-14.4043h14.4043c2.44141 0 4.15039-1.61133 4.15039-4.00391 0-2.44141-1.70898-4.15039-4.15039-4.15039h-14.4043v-14.3555c0-2.49023-1.70898-4.19922-4.15039-4.19922-2.39258 0-4.05273 1.70898-4.05273 4.19922v14.3555h-14.3555c-2.49023 0-4.15039 1.70898-4.15039 4.15039Z"/>
  </g>
  <g transform="matrix(0.2 0 0 0.2 304.924 1933)">
   <path d="m74.8535 28.3203c35.1074 0 63.623-28.4668 63.623-63.5742s-28.5156-63.623-63.623-63.623-63.5742 28.5156-63.5742 63.623 28.4668 63.5742 63.5742 63.5742Zm0-9.08203c-30.127 0-54.4922-24.3652-54.4922-54.4922s24.3652-54.4922 54.4922-54.4922 54.4922 24.3652 54.4922 54.4922-24.3652 54.4922-54.4922 54.4922Zm-28.8574-54.4922c0 2.58789 1.85547 4.39453 4.58984 4.39453h19.7266v19.7754c0 2.68555 1.85547 4.58984 4.44336 4.58984 2.68555 0 4.54102-1.85547 4.54102-4.58984v-19.7754h19.7754c2.68555 0 4.58984-1.80664 4.58984-4.39453 0-2.73438-1.85547-4.58984-4.58984-4.58984h-19.7754v-19.7266c0-2.73438-1.85547-4.63867-4.54102-4.63867-2.58789 0-4.44336 1.9043-4.44336 4.63867v19.7266h-19.7266c-2.73438 0-4.58984 1.85547-4.58984 4.58984Z"/>
  </g>
  <text style="stroke:none;fill:black;font-family:sans-serif;font-size:13;font-weight:bold;" transform="matrix(1 0 0 1 263 1953)">Design Variations</text>
  <text style="stroke:none;fill:black;font-family:sans-serif;font-size:13;" transform="matrix(1 0 0 1 263 1971)">Symbols are supported in up to nine weights and three scales.</text>
  <text style="stroke:none;fill:black;font-family:sans-serif;font-size:13;" transform="matrix(1 0 0 1 263 1989)">For optimal layout with text and other symbols, vertically align</text>
  <text style="stroke:none;fill:black;font-family:sans-serif;font-size:13;" transform="matrix(1 0 0 1 263 2007)">symbols with the adjacent text.</text>
  <line style="fill:none;stroke:#00AEEF;stroke-width:0.5;opacity:1.0;" x1="776" x2="776" y1="1919" y2="1933"/>
  <g transform="matrix(0.2 0 0 0.2 776 1933)">
   <path d="m16.5527 0.78125c2.58789 0 3.85742-0.976562 4.78516-3.71094l6.29883-17.2363h28.8086l6.29883 17.2363c0.927734 2.73438 2.19727 3.71094 4.73633 3.71094 2.58789 0 4.24805-1.5625 4.24805-4.00391 0-0.830078-0.146484-1.61133-0.537109-2.63672l-22.9004-60.9863c-1.12305-2.97852-3.125-4.49219-6.25-4.49219-3.02734 0-5.07812 1.46484-6.15234 4.44336l-22.9004 61.084c-0.390625 1.02539-0.537109 1.80664-0.537109 2.63672 0 2.44141 1.5625 3.95508 4.10156 3.95508Zm13.4766-28.3691 11.8652-32.8613h0.244141l11.8652 32.8613Z"/>
  </g>
  <line style="fill:none;stroke:#00AEEF;stroke-width:0.5;opacity:1.0;" x1="792.836" x2="792.836" y1="1919" y2="1933"/>
  <text style="stroke:none;fill:black;font-family:sans-serif;font-size:13;font-weight:bold;" transform="matrix(1 0 0 1 776 1953)">Margins</text>
  <text style="stroke:none;fill:black;font-family:sans-serif;font-size:13;" transform="matrix(1 0 0 1 776 1971)">Leading and trailing margins on the left and right side of each symbol</text>
  <text style="stroke:none;fill:black;font-family:sans-serif;font-size:13;" transform="matrix(1 0 0 1 776 1989)">can be adjusted by modifying the x-location of the margin guidelines.</text>
  <text style="stroke:none;fill:black;font-family:sans-serif;font-size:13;" transform="matrix(1 0 0 1 776 2007)">Modifications are automatically applied proportionally to all</text>
  <text style="stroke:none;fill:black;font-family:sans-serif;font-size:13;" transform="matrix(1 0 0 1 776 2025)">scales and weights.</text>
  <g transform="matrix(0.2 0 0 0.2 1289 1933)">
   <path d="m14.209 9.32617 8.49609 8.54492c4.29688 4.3457 9.22852 4.05273 13.8672-1.07422l53.4668-58.9355-4.83398-4.88281-53.0762 58.3984c-1.75781 2.00195-3.41797 2.49023-5.76172 0.146484l-5.85938-5.81055c-2.34375-2.29492-1.80664-4.00391 0.195312-5.81055l57.373-54.0039-4.88281-4.83398-57.959 54.4434c-4.93164 4.58984-5.32227 9.47266-1.02539 13.8184Zm32.0801-90.9668c-2.09961 2.05078-2.24609 4.93164-1.07422 6.88477 1.17188 1.80664 3.4668 2.97852 6.68945 2.14844 7.32422-1.70898 14.9414-2.00195 22.0703 2.68555l-2.92969 7.27539c-1.70898 4.15039-0.830078 7.08008 1.85547 9.81445l11.4746 11.5723c2.44141 2.44141 4.49219 2.53906 7.32422 2.05078l5.32227-0.976562 3.32031 3.36914-0.195312 2.7832c-0.195312 2.49023 0.439453 4.39453 2.88086 6.78711l3.80859 3.71094c2.39258 2.39258 5.46875 2.53906 7.8125 0.195312l14.5508-14.5996c2.34375-2.34375 2.24609-5.32227-0.146484-7.71484l-3.85742-3.80859c-2.39258-2.39258-4.24805-3.17383-6.64062-2.97852l-2.88086 0.244141-3.22266-3.17383 1.2207-5.61523c0.634766-2.83203-0.146484-5.0293-3.07617-7.95898l-10.9863-10.9375c-16.6992-16.6016-38.8672-16.2109-53.3203-1.75781Zm7.4707 1.85547c12.1582-8.88672 28.6133-7.37305 39.7461 3.75977l12.1582 12.0605c1.17188 1.17188 1.36719 2.09961 1.02539 3.80859l-1.61133 7.42188 7.51953 7.42188 4.93164-0.292969c1.26953-0.0488281 1.66016 0.0488281 2.63672 1.02539l2.88086 2.88086-12.207 12.207-2.88086-2.88086c-0.976562-0.976562-1.12305-1.36719-1.07422-2.68555l0.341797-4.88281-7.4707-7.42188-7.61719 1.26953c-1.61133 0.341797-2.34375 0.195312-3.56445-0.976562l-10.0098-10.0098c-1.26953-1.17188-1.41602-2.00195-0.634766-3.85742l4.39453-10.4492c-7.8125-7.27539-17.9688-10.4004-28.125-7.42188-0.78125 0.195312-1.07422-0.439453-0.439453-0.976562Z"/>
  </g>
  <text style="stroke:none;fill:black;font-family:sans-serif;font-size:13;font-weight:bold;" transform="matrix(1 0 0 1 1289 1953)">Exporting</text>
  <text style="stroke:none;fill:black;font-family:sans-serif;font-size:13;" transform="matrix(1 0 0 1 1289 1971)">Symbols should be outlined when exporting to ensure the</text>
  <text style="stroke:none;fill:black;font-family:sans-serif;font-size:13;" transform="matrix(1 0 0 1 1289 1989)">design is preserved when submitting to Xcode.</text>
  <text id="template-version" style="stroke:none;fill:black;font-family:sans-serif;font-size:13;text-anchor:end;" transform="matrix(1 0 0 1 3036 1933)">Template v.6.0</text>
  <text style="stroke:none;fill:black;font-family:sans-serif;font-size:13;text-anchor:end;" transform="matrix(1 0 0 1 3036 1951)">Requires Xcode 16 or greater</text>
  <text id="descriptive-name" style="stroke:none;fill:black;font-family:sans-serif;font-size:13;text-anchor:end;" transform="matrix(1 0 0 1 3036 1969)">Generated from capsule</text>
  <text style="stroke:none;fill:black;font-family:sans-serif;font-size:13;text-anchor:end;" transform="matrix(1 0 0 1 3036 1987)">Typeset at 100.0 points</text>
  <text style="stroke:none;fill:black;font-family:sans-serif;font-size:13;" transform="matrix(1 0 0 1 263 726)">Small</text>
  <text style="stroke:none;fill:black;font-family:sans-serif;font-size:13;" transform="matrix(1 0 0 1 263 1156)">Medium</text>
  <text style="stroke:none;fill:black;font-family:sans-serif;font-size:13;" transform="matrix(1 0 0 1 263 1586)">Large</text>
 </g>
 <g id="Guides">
  <g id="H-reference" style="fill:#27AAE1;stroke:none;" transform="matrix(1 0 0 1 339 696)">
   <path d="M0.993654 0L3.63775 0L29.3281-67.1323L30.0303-67.1323L30.0303-70.459L28.1226-70.459ZM11.6885-24.4799L46.9815-24.4799L46.2315-26.7285L12.4385-26.7285ZM55.1196 0L57.7637 0L30.6382-70.459L29.4326-70.459L29.4326-67.1323Z"/>
  </g>
  <line id="Baseline-S" style="fill:none;stroke:#27AAE1;opacity:1;stroke-width:0.5;" x1="263" x2="3036" y1="696" y2="696"/>
  <line id="Capline-S" style="fill:none;stroke:#27AAE1;opacity:1;stroke-width:0.5;" x1="263" x2="3036" y1="625.541" y2="625.541"/>
  <g id="H-reference" style="fill:#27AAE1;stroke:none;" transform="matrix(1 0 0 1 339 1126)">
   <path d="M0.993654 0L3.63775 0L29.3281-67.1323L30.0303-67.1323L30.0303-70.459L28.1226-70.459ZM11.6885-24.4799L46.9815-24.4799L46.2315-26.7285L12.4385-26.7285ZM55.1196 0L57.7637 0L30.6382-70.459L29.4326-70.459L29.4326-67.1323Z"/>
  </g>
  <line id="Baseline-M" style="fill:none;stroke:#27AAE1;opacity:1;stroke-width:0.5;" x1="263" x2="3036" y1="1126" y2="1126"/>
  <line id="Capline-M" style="fill:none;stroke:#27AAE1;opacity:1;stroke-width:0.5;" x1="263" x2="3036" y1="1055.54" y2="1055.54"/>
  <g id="H-reference" style="fill:#27AAE1;stroke:none;" transform="matrix(1 0 0 1 339 1556)">
   <path d="M0.993654 0L3.63775 0L29.3281-67.1323L30.0303-67.1323L30.0303-70.459L28.1226-70.459ZM11.6885-24.4799L46.9815-24.4799L46.2315-26.7285L12.4385-26.7285ZM55.1196 0L57.7637 0L30.6382-70.459L29.4326-70.459L29.4326-67.1323Z"/>
  </g>
  <line id="Baseline-L" style="fill:none;stroke:#27AAE1;opacity:1;stroke-width:0.5;" x1="263" x2="3036" y1="1556" y2="1556"/>
  <line id="Capline-L" style="fill:none;stroke:#27AAE1;opacity:1;stroke-width:0.5;" x1="263" x2="3036" y1="1485.54" y2="1485.54"/>
  <line id="right-margin-Black-S" style="fill:none;stroke:#00AEEF;stroke-width:0.5;opacity:1.0;" x1="2992.53" x2="2992.53" y1="600.785" y2="720.121"/>
  <line id="left-margin-Black-S" style="fill:none;stroke:#00AEEF;stroke-width:0.5;opacity:1.0;" x1="2874.27" x2="2874.27" y1="600.785" y2="720.121"/>
  <line id="right-margin-Regular-S" style="fill:none;stroke:#00AEEF;stroke-width:0.5;opacity:1.0;" x1="1506.29" x2="1506.29" y1="600.785" y2="720.121"/>
  <line id="left-margin-Regular-S" style="fill:none;stroke:#00AEEF;stroke-width:0.5;opacity:1.0;" x1="1393.4" x2="1393.4" y1="600.785" y2="720.121"/>
  <line id="right-margin-Ultralight-S" style="fill:none;stroke:#00AEEF;stroke-width:0.5;opacity:1.0;" x1="613.455" x2="613.455" y1="600.785" y2="720.121"/>
  <line id="left-margin-Ultralight-S" style="fill:none;stroke:#00AEEF;stroke-width:0.5;opacity:1.0;" x1="505.968" x2="505.968" y1="600.785" y2="720.121"/>
 </g>
 <g id="Symbols">
  <g id="Black-S" transform="matrix(1 0 0 1 2874.27 696)">
   <path class="monochrome-0 multicolor-0:tintColor hierarchical-0:secondary SFSymbolsPreviewWireframe" d="M6.83594-35.2539C6.83594-11.9629 22.7051 3.56445 46.4844 3.56445L71.7773 3.56445C95.5566 3.56445 111.426-11.9629 111.426-35.2539C111.426-58.5449 95.5566-74.0723 71.7773-74.0723L46.4844-74.0723C22.7051-74.0723 6.83594-58.5449 6.83594-35.2539ZM20.9961-35.2539C20.9961-50.3906 30.8105-59.9121 46.4844-59.9121L71.7773-59.9121C87.4512-59.9121 97.2656-50.3906 97.2656-35.2539C97.2656-20.1172 87.4512-10.5957 71.7773-10.5957L46.4844-10.5957C30.8105-10.5957 20.9961-20.1172 20.9961-35.2539Z"/>
   <path class="monochrome-1 multicolor-1:tintColor hierarchical-1:primary SFSymbolsPreviewWireframe" d="M56.2056-19.8484C57.7578-19.8484 58.8621-20.7334 58.8621-22.2261C58.8621-22.8568 58.728-23.3838 58.2923-24.6418C57.0424-28.8727 56.6791-31.9089 56.6791-35.1974C56.6791-38.5288 57.08-41.4522 58.2878-45.6816C58.728-46.9456 58.8621-47.4726 58.8621-48.1018C58.8621-49.5976 57.7578-50.4796 56.2056-50.4796C54.2471-50.4796 52.7318-49.4668 51.2924-47.2934C49.4186-44.271 48.5394-40.352 48.5394-35.1959C48.5394-29.9819 49.5005-26.0212 51.2924-23.033C52.7074-20.8291 54.2471-19.8484 56.2056-19.8484ZM64.5963-22.468C66.1226-22.468 66.8874-22.9372 68.1927-24.9156L71.7802-30.4722L71.9142-30.4722L75.6906-24.7282C76.6854-23.2339 77.3891-22.468 79.1271-22.468C81.4303-22.468 83.1602-23.8451 83.1602-26.2179C83.1602-27.1668 82.8236-27.9406 82.1839-28.8256L77.6103-34.9604L82.0224-40.6695C82.8877-41.8088 83.2198-42.5887 83.2198-43.6671C83.2198-45.8649 81.6748-47.2495 79.3297-47.2495C77.7227-47.2495 76.868-46.5336 75.6736-44.6663L72.3863-39.4604L72.2828-39.4604L68.9695-44.6937C67.7419-46.5914 66.8599-47.2495 65.0854-47.2495C62.8113-47.2495 61.0872-45.6714 61.0872-43.5284C61.0872-42.5443 61.3843-41.7157 61.9617-40.9205L66.5942-34.7214L62.0206-28.8605C61.1281-27.7198 60.8175-26.917 60.8175-25.854C60.8175-23.8556 62.397-22.468 64.5963-22.468ZM88.9254-19.8484C90.884-19.8484 92.395-20.8581 93.8374-23.033C95.6883-25.9923 96.5916-29.9819 96.5916-35.1959C96.5916-40.352 95.6549-44.2421 93.8374-47.2934C92.427-49.4958 90.884-50.4796 88.9254-50.4796C87.3735-50.4796 86.2662-49.5976 86.2662-48.1018C86.2662-47.4726 86.4033-46.9456 86.8418-45.6816C88.0498-41.4522 88.4523-38.5288 88.4523-35.1974C88.4523-31.9089 88.0889-28.8727 86.8388-24.6418C86.4033-23.3838 86.2662-22.8568 86.2662-22.2261C86.2662-20.7304 87.3735-19.8484 88.9254-19.8484Z"/>
   <path class="monochrome-2 multicolor-2:tintColor hierarchical-2:primary SFSymbolsPreviewWireframe" d="M26.9079-19.8273C32.4125-19.8273 35.01-21.6745 36.1383-27.0176L37.7183-34.4945L40.8165-34.4945C42.5016-34.4945 43.9046-35.5883 43.9046-37.628C43.9046-39.6509 42.4881-40.7796 40.7865-40.7796L39.0391-40.7796L39.2858-41.9869C39.6099-43.4564 40.0639-43.8579 41.3116-43.8579C41.6094-43.8579 41.8813-43.8913 42.1589-43.9477C43.8515-44.2294 44.8736-45.25 44.8736-46.7871C44.8736-49.2655 43.1382-50.4856 39.6486-50.4856C34.1379-50.4856 31.5495-48.6533 30.4197-43.2952L29.8972-40.7796L27.9549-40.7796C26.2165-40.7796 24.8728-39.6569 24.8728-37.6431C24.8728-35.5943 26.2285-34.4945 27.9849-34.4945L28.5735-34.4945L27.2722-28.326C26.9511-26.8624 26.4986-26.4565 25.2434-26.4565C25.0019-26.4565 24.756-26.4216 24.5058-26.3941C22.5469-26.1139 21.6724-24.9228 21.6724-23.5273C21.6724-21.0474 23.4093-19.8273 26.9079-19.8273Z"/>
  </g>
  <g id="Regular-S" transform="matrix(1 0 0 1 1393.4 696)">
   <path class="monochrome-0 multicolor-0:tintColor hierarchical-0:secondary SFSymbolsPreviewWireframe" d="M6.83594-35.2539C6.83594-12.8906 22.5098 1.9043 46.0938 1.9043L66.7969 1.9043C90.332 1.9043 106.055-12.8906 106.055-35.2539C106.055-57.6172 90.332-72.4121 66.7969-72.4121L46.0938-72.4121C22.5098-72.4121 6.83594-57.6172 6.83594-35.2539ZM13.8672-35.2539C13.8672-53.0273 27.0996-65.3809 46.0938-65.3809L66.7969-65.3809C85.791-65.3809 98.9746-53.0273 98.9746-35.2539C98.9746-17.4805 85.791-5.12695 66.7969-5.12695L46.0938-5.12695C27.0996-5.12695 13.8672-17.4805 13.8672-35.2539Z"/>
   <path class="monochrome-1 multicolor-1:tintColor hierarchical-1:primary SFSymbolsPreviewWireframe" d="M55.054-20.5803C56.1531-20.5803 56.919-21.1968 56.919-22.2561C56.919-22.7077 56.8199-23.0291 56.4932-23.8311C54.6882-27.767 53.8692-31.4188 53.8692-35.21C53.8692-39.0166 54.6938-42.6517 56.5055-46.5721C56.8199-47.3774 56.919-47.6987 56.919-48.1643C56.919-49.1958 56.1531-49.8401 55.054-49.8401C53.799-49.8401 52.8305-49.2274 51.8078-47.7224C49.3998-44.3108 48.2439-40.0801 48.2439-35.2239C48.2439-30.3435 49.4371-26.1015 51.8078-22.6824C52.8061-21.1792 53.799-20.5803 55.054-20.5803ZM61.1089-24.6273C62.168-24.6273 62.7777-24.9538 63.6424-26.2455L67.4053-31.7389L67.5044-31.7389L71.3891-26.1098C72.1392-25.035 72.7523-24.6273 73.7836-24.6273C75.3707-24.6273 76.5008-25.638 76.5008-27.1675C76.5008-27.8115 76.2873-28.3672 75.8602-28.9542L71.2229-35.1212L75.7939-41.1176C76.3149-41.8106 76.5407-42.3695 76.5407-43.0955C76.5407-44.566 75.4307-45.5367 73.9275-45.5367C72.7763-45.5367 72.158-45.0053 71.4128-43.8627L67.8914-38.5098L67.7906-38.5098L64.2292-43.8887C63.4843-45.059 62.8105-45.5367 61.5604-45.5367C60.015-45.5367 58.8292-44.3977 58.8292-42.9792C58.8292-42.1906 59.069-41.6123 59.4842-41.0633L63.9732-35.0936L59.3065-28.9107C58.7595-28.2022 58.586-27.6344 58.586-26.928C58.586-25.5995 59.6817-24.6273 61.1089-24.6273ZM80.4754-20.5803C81.7304-20.5803 82.7112-21.1913 83.7356-22.6824C86.1164-26.0894 87.2856-30.3435 87.2856-35.2239C87.2856-40.0801 86.1053-44.2987 83.7356-47.7224C82.725-49.2395 81.7304-49.8401 80.4754-49.8401C79.3764-49.8401 78.6089-49.1958 78.6089-48.1643C78.6089-47.6987 78.7096-47.3774 79.0379-46.5721C80.8497-42.6517 81.6604-39.0166 81.6604-35.21C81.6604-31.4188 80.8413-27.767 79.0362-23.8311C78.7096-23.0291 78.6089-22.7077 78.6089-22.2561C78.6089-21.2246 79.3764-20.5803 80.4754-20.5803Z"/>
   <path class="monochrome-2 multicolor-2:tintColor hierarchical-2:primary SFSymbolsPreviewWireframe" d="M29.4333-20.5689C34.0248-20.5689 36.186-22.2945 37.2011-27.1442L39.0578-35.9708L42.2392-35.9708C43.6982-35.9708 44.7784-36.8341 44.7784-38.3397C44.7784-39.7514 43.8234-40.5712 42.5173-40.5712L40.0304-40.5712L40.4127-42.4016C40.815-44.3381 41.4285-45.0557 43.1363-45.0557C43.4284-45.0557 43.6805-45.0849 43.9245-45.1231C45.2846-45.314 46.0018-46.0451 46.0018-47.2538C46.0018-48.9994 44.6845-49.8433 42.0761-49.8433C37.5402-49.8433 35.2662-47.9787 34.2944-43.268L33.7245-40.5712L31.7315-40.5712C30.2359-40.5712 29.1955-39.6958 29.1955-38.2006C29.1955-36.7784 30.1246-35.9708 31.4534-35.9708L32.7503-35.9708L31.0829-28.0106C30.6527-26.0185 30.0253-25.3427 28.3576-25.3427C28.1331-25.3427 27.9209-25.3273 27.7029-25.3013C26.2893-25.0965 25.6049-24.2648 25.6049-23.1445C25.6049-21.4128 26.9084-20.5689 29.4333-20.5689Z"/>
  </g>
  <g id="Ultralight-S" transform="matrix(1 0 0 1 505.968 696)">
   <path class="monochrome-0 multicolor-0:tintColor hierarchical-0:secondary SFSymbolsPreviewWireframe" d="M6.83594-35.2539C6.83594-14.0713 20.2393-0.820291 40.9624-0.820291L66.5698-0.820291C87.2896-0.820291 100.651-14.0713 100.651-35.2539C100.651-56.4365 87.2896-69.6875 66.5698-69.6875L40.9624-69.6875C20.2393-69.6875 6.83594-56.4365 6.83594-35.2539ZM9.05375-35.2539C9.05375-55.4341 21.1963-67.4697 40.9624-67.4697L66.5698-67.4697C86.2905-67.4697 98.4751-55.4341 98.4751-35.2539C98.4751-15.0737 86.2905-3.0381 66.5698-3.0381L40.9624-3.0381C21.1963-3.0381 9.05375-15.0737 9.05375-35.2539Z"/>
   <path class="monochrome-1 multicolor-1:tintColor hierarchical-1:primary SFSymbolsPreviewWireframe" d="M54.0839-21.034C54.4954-21.034 54.8066-21.2764 54.8066-21.6922C54.8066-21.8945 54.7478-22.0222 54.59-22.2846C52.0086-25.7221 50.2898-29.9388 50.2898-35.1741C50.2898-39.9246 51.8258-44.6894 54.6144-48.1312C54.7478-48.3648 54.8066-48.4926 54.8066-48.7049C54.8066-49.1007 54.4954-49.3631 54.0839-49.3631C53.6825-49.3631 53.3944-49.1896 53.003-48.6779C49.8788-45.1352 48.2526-40.3941 48.2526-35.1841C48.2526-29.9742 49.7636-25.574 53.003-21.7236C53.37-21.2219 53.6825-21.034 54.0839-21.034ZM57.3403-26.1121C57.7318-26.1121 58.0042-26.2455 58.3254-26.6958L63.2059-33.8251L63.2647-33.8251L68.2184-26.6125C68.5065-26.2011 68.7989-26.1121 69.1246-26.1121C69.7139-26.1121 70.0953-26.528 70.0953-27.0427C70.0953-27.2563 70.0308-27.4743 69.8774-27.7109L64.5035-35.3424L69.8198-42.6573C70.002-42.9228 70.0909-43.112 70.0909-43.4031C70.0909-43.928 69.6406-44.2993 69.1359-44.2993C68.7044-44.2993 68.452-44.0814 68.1665-43.6725L63.395-36.8022L63.3261-36.8022L58.5347-43.6825C58.2735-44.087 58.0055-44.2993 57.5395-44.2993C56.9559-44.2993 56.5344-43.8678 56.5344-43.363C56.5344-43.0161 56.6577-42.7837 56.8356-42.5327L62.0316-35.3926L56.6521-27.6709C56.4598-27.4097 56.4154-27.1918 56.4154-26.9682C56.4154-26.4691 56.8312-26.1121 57.3403-26.1121ZM72.2959-21.034C72.6974-21.034 73.0099-21.2219 73.3869-21.7236C76.6162-25.574 78.1273-29.9742 78.1273-35.1841C78.1273-40.3941 76.5012-45.1352 73.3869-48.6779C72.9955-49.1896 72.6974-49.3631 72.2959-49.3631C71.8845-49.3631 71.5876-49.1007 71.5876-48.7049C71.5876-48.4926 71.6321-48.3648 71.7755-48.1312C74.5641-44.6894 76.09-39.9246 76.09-35.1741C76.09-29.9388 74.3713-25.7221 71.7899-22.2846C71.6321-22.0222 71.5876-21.8945 71.5876-21.6922C71.5876-21.2964 71.8845-21.034 72.2959-21.034Z"/>
   <path class="monochrome-2 multicolor-2:tintColor hierarchical-2:primary SFSymbolsPreviewWireframe" d="M31.4801-21.1347C34.7963-21.1347 36.282-22.7273 37.0802-26.6051L39.5871-38.4786L43.5494-38.4786C44.2145-38.4786 44.656-38.86 44.656-39.4694C44.656-40.0042 44.3047-40.3455 43.7498-40.3455L39.9929-40.3455L40.6683-43.5571C41.2473-46.3413 42.0661-47.4373 44.3615-47.4373C44.7696-47.4373 45.1576-47.4186 45.3773-47.4286C45.9867-47.4787 46.2735-47.7755 46.2735-48.2816C46.2735-49.0174 45.6035-49.3343 44.0821-49.3343C40.806-49.3343 39.2545-47.6415 38.4719-43.864L37.7177-40.3455L34.592-40.3455C33.9024-40.3455 33.4565-39.9641 33.4565-39.3692C33.4565-38.8199 33.8223-38.4786 34.3915-38.4786L37.3263-38.4786L34.8838-26.9119C34.2848-24.0877 33.4561-23.0217 31.2051-23.0217C30.8127-23.0217 30.4447-23.0504 30.235-23.0404C29.6657-22.9803 29.3588-22.6634 29.3588-22.1774C29.3588-21.4516 30.0188-21.1347 31.4801-21.1347Z"/>
  </g>
 </g>
</svg>
